<svg class="svg-icon" fill="#b23850" style="width: 1.134765625em;height: 1em;vertical-align: middle;overflow: hidden;" viewBox="0 0 1162 1024" version="1.1" xmlns="http://www.w3.org/2000/svg"><path d="M1079.351351 166.054054h-249.081081V83.027027a83.027027 83.027027 0 0 0-83.027027-83.027027H415.135135a83.027027 83.027027 0 0 0-83.027027 83.027027v83.027027H83.027027a83.027027 83.027027 0 0 0-83.027027 83.027027v691.891892a83.027027 83.027027 0 0 0 83.027027 83.027027h996.324324a83.027027 83.027027 0 0 0 83.027027-83.027027V249.081081a83.027027 83.027027 0 0 0-83.027027-83.027027zM415.135135 83.027027h332.108108v83.027027H415.135135V83.027027z m664.216216 166.054054v207.844324a40.378811 40.378811 0 0 0-18.570378 4.151352 1720.901189 1720.901189 0 0 1-346.997622 117.898378A83.027027 83.027027 0 0 0 636.540541 525.837838h-110.702703a83.027027 83.027027 0 0 0-78.073081 55.904865 1540.317405 1540.317405 0 0 1-349.626811-120.665946A38.330811 38.330811 0 0 0 83.027027 456.925405V249.081081h996.324324zM636.540541 608.864865v83.027027h-110.702703v-83.027027h110.702703zM83.027027 940.972973V547.701622a1642.053189 1642.053189 0 0 0 359.783784 118.451892V691.891892a83.027027 83.027027 0 0 0 83.027027 83.027027h110.702703a83.027027 83.027027 0 0 0 83.027027-83.027027v-29.88973a1455.325405 1455.325405 0 0 0 359.783783-120.942703V940.972973H83.027027z"  /></svg>