<svg class="svg-icon" fill="#b23850" style="width: 1em; height: 1em;vertical-align: middle;overflow: hidden;" viewBox="0 0 1024 1024" version="1.1" xmlns="http://www.w3.org/2000/svg"><path d="M256 192H160A96 96 0 0 0 64 288V320h896v-32A96 96 0 0 0 864 192H768v32a32 32 0 1 1-64 0V192H320v32a32 32 0 0 1-64 0V192z m64-64h384v-32a32 32 0 1 1 64 0V128h96A160 160 0 0 1 1024 288v512a160 160 0 0 1-160 160h-704A160 160 0 0 1 0 800v-512A160 160 0 0 1 160 128H256v-32a32 32 0 0 1 64 0V128z m640 256H64v416A96 96 0 0 0 160 896h704a96 96 0 0 0 96-96V384zM288 576a32 32 0 0 1 0-64h448a32 32 0 1 1 0 64h-448z m0 192a32 32 0 1 1 0-64h448a32 32 0 1 1 0 64h-448z"  /></svg>