<svg class="svg-icon" style="width: 1em;height: 1em;vertical-align: middle;fill: currentColor;overflow: hidden;" viewBox="0 0 1024 1024" version="1.1" xmlns="http://www.w3.org/2000/svg"><path d="M682.048504 42.669354v256h255.088882v-64.004031L745.826772 42.669354zM469.483843 981.330646c117.397165 0 212.572724-95.506142 212.572724-213.330646H469.483843V554.669354c-117.397165 0-212.564661 95.506142-212.564662 213.330646 0 117.824504 95.167496 213.330646 212.564662 213.330646z" fill="#CCE4FF" /><path d="M724.572724 0H44.346457v1024h85.024252V85.330646h510.1697v256h255.088882V1024H979.653543V216.975118L763.428283 0h-38.863622z m170.048504 256h-170.048504V85.330646h3.652536l166.404031 167.024882v3.644472z" fill="#007AFF" /><path d="M214.394961 768c0 141.166866 114.429984 256 255.088882 256 140.666961 0 255.088882-114.833134 255.088881-256v-21.334677H639.540409v21.334677c0 94.103181-76.283969 170.669354-170.048503 170.669354-93.772598 0-170.06463-76.566173-170.06463-170.669354 0-94.103181 76.292031-170.669354 170.056567-170.669354h21.26211V512h-21.26211c-140.658898 0-255.080819 114.833134-255.080819 256z" fill="#007AFF" /><path d="M618.286362 679.000693l63.770205-64.004032L745.826772 679.000693l60.117669-60.33537-63.778268-63.995969 63.778268-64.004031L745.826772 430.32189l-63.778268 64.020157-63.762142-64.020157-60.117669 60.351496 63.770205 64.004031-63.778268 63.995969zM426.975748 725.330646H512v85.338708H426.975748z" fill="#007AFF" /></svg>