<?xml version="1.0" ?><!-- Uploaded to: SVG Repo, www.svgrepo.com, Generator: SVG Repo Mixer Tools -->
<svg fill="#b91c1c" width="800px" height="800px" viewBox="0 0 24 24" id="Main" xmlns="http://www.w3.org/2000/svg"><title/><path d="M20,5H15V4a2,2,0,0,0-2-2H4A2,2,0,0,0,2,4V17a2,2,0,0,0,2,2H9v1a2,2,0,0,0,2,2h9a2,2,0,0,0,2-2V7A2,2,0,0,0,20,5ZM4,17V4h9V5H11A2,2,0,0,0,9,7H6A1,1,0,0,0,6,9H9v1H6a1,1,0,0,0,0,2H9v1H6a1,1,0,0,0,0,2H9v2Zm7,3V7h9V20Z"/><path d="M18.58,8.19a1,1,0,0,0-1.39.23L15.5,10.78,13.81,8.42a1,1,0,1,0-1.62,1.16l2.08,2.92-2.08,2.92a1,1,0,0,0,.23,1.39A1,1,0,0,0,13,17a1,1,0,0,0,.81-.42l1.69-2.36,1.69,2.36A1,1,0,0,0,18,17a1,1,0,0,0,.58-.19,1,1,0,0,0,.23-1.39L16.73,12.5l2.08-2.92A1,1,0,0,0,18.58,8.19Z"/></svg>