<svg class="svg-icon" style="width: 1em; height: 1em;vertical-align: middle;fill: currentColor;overflow: hidden;" viewBox="0 0 1024 1024" version="1.1" xmlns="http://www.w3.org/2000/svg"><path d="M342.1 902.7c0-7-5.7-12.7-12.7-12.7H124.3c-18.3 0-33.2-13.8-33.2-30.8v-631c0-17 14.9-30.8 33.2-30.8h490.2c18.3 0 33.2 13.8 33.2 30.8v133.7c0 7.6 6.1 13.7 13.7 13.7s13.7-6.1 13.7-13.7V228.2c0-30.9-27.2-56.1-60.5-56.1H124.3c-33.4 0-60.5 25.2-60.5 56.1v631.1c0 30.9 27.2 56.1 60.5 56.1h205.2c7 0 12.6-5.7 12.6-12.7z"  /><path d="M311.9 582.6H136.3c-0.6 0-1.1-0.5-1.1-1.1V572c0-0.6 0.5-1.1 1.1-1.1h175.6c0.6 0 1.1 0.5 1.1 1.1v9.5c0 0.6-0.5 1.1-1.1 1.1zM365.3 349.1h-229c-0.6 0-1.1-0.5-1.1-1.1v-9.5c0-0.6 0.5-1.1 1.1-1.1h229.1c0.6 0 1.1 0.5 1.1 1.1v9.5c-0.1 0.6-0.5 1.1-1.2 1.1zM602.5 349.1H459c-0.6 0-1.1-0.5-1.1-1.1v-9.5c0-0.6 0.5-1.1 1.1-1.1h143.6c0.6 0 1.1 0.5 1.1 1.1v9.5c-0.1 0.6-0.6 1.1-1.2 1.1zM423.2 349.1h-15.4c-0.6 0-1.1-0.5-1.1-1.1v-9.5c0-0.6 0.5-1.1 1.1-1.1h15.4c0.6 0 1.1 0.5 1.1 1.1v9.5c0 0.6-0.5 1.1-1.1 1.1zM311.9 465.8H136.3c-0.6 0-1.1-0.5-1.1-1.1v-9.5c0-0.6 0.5-1.1 1.1-1.1h175.6c0.6 0 1.1 0.5 1.1 1.1v9.5c0 0.6-0.5 1.1-1.1 1.1z"  /><path d="M928.1 932.5h-29.2V654.9c0-16.1-13.1-29.2-29.2-29.2H738.2c-8.1 0-14.6 6.5-14.6 14.6s6.5 14.6 14.6 14.6H855c8 0 14.6 6.6 14.6 14.6v248.3c0 8.1-6.5 14.6-14.6 14.6H679.7V435.9c0-16.1-13.1-29.2-29.2-29.2H431.4c-16.1 0-29.2 13.1-29.2 29.2v496.7h-28.4c-7.9 0-15 5.9-15.4 13.8-0.4 8.4 6.3 15.4 14.6 15.4h554.5c7.1 0 13.6-4.8 15-11.7 1.8-9.4-5.4-17.6-14.4-17.6z m-277.6 0H431.4v-482c0-8.1 6.6-14.6 14.6-14.6h189.9c8.1 0 14.6 6.5 14.6 14.6v482zM489.8 625.8h14.7c8.1 0 14.6-6.5 14.6-14.6v-14.7c0-8.1-6.5-14.6-14.6-14.6h-14.7c-8.1 0-14.6 6.5-14.6 14.6v14.7c0 8 6.6 14.6 14.6 14.6z m0-87.7h14.7c8.1 0 14.6-6.5 14.6-14.6v-14.7c0-8.1-6.5-14.6-14.6-14.6h-14.7c-8.1 0-14.6 6.5-14.6 14.6v14.7c0 8.1 6.6 14.6 14.6 14.6z m87.7 87.7h14.7c8.1 0 14.6-6.5 14.6-14.6v-14.7c0-8.1-6.5-14.6-14.6-14.6h-14.7c-8.1 0-14.6 6.5-14.6 14.6v14.7c0 8 6.5 14.6 14.6 14.6z m0-87.7h14.7c8.1 0 14.6-6.5 14.6-14.6v-14.7c0-8.1-6.5-14.6-14.6-14.6h-14.7c-8.1 0-14.6 6.5-14.6 14.6v14.7c0 8.1 6.5 14.6 14.6 14.6z m-14.6 0"  /><path d="M137.4 728.4c2.8-3.5 7.9-4 11.3-1.3l50.6 40.6 107.9-107.9c3.2-3.2 8.3-3.2 11.4 0 3.2 3.1 3.2 8.3 0 11.4L206 783.8c-1.4 1.4-3.3 2.2-5.2 2.3-2.2 0.4-4.6-0.1-6.5-1.6l-55.8-44.8c-3.3-2.8-3.9-7.9-1.1-11.3z m0 0"  /><path d="M369.4 173.4c-29.8 0-54.1-24.3-54.1-54.1s24.3-54.1 54.1-54.1 54.1 24.3 54.1 54.1-24.3 54.1-54.1 54.1z m0-81.5c-15.1 0-27.4 12.3-27.4 27.4s12.3 27.4 27.4 27.4 27.4-12.3 27.4-27.4-12.3-27.4-27.4-27.4z"  /><path d="M503.6 219.7H250c-2 0-3.7-1.6-3.7-3.7v-67.5c0-2 1.6-3.7 3.7-3.7h253.5c2 0 3.7 1.6 3.7 3.7V216c0 2-1.6 3.7-3.6 3.7z"  /></svg>