<svg class="svg-icon"  fill="#b23850" style="width: 1em; height: 1em;vertical-align: middle;overflow: hidden;" viewBox="0 0 1024 1024" version="1.1" xmlns="http://www.w3.org/2000/svg"><path d="M512 1019.834182C512 1019.834182 512 1019.834182 512 1019.834182c-8.657455 0-16.593455-4.794182-20.619636-12.450909l-258.56-492.846545c-0.046545-0.069818-0.093091-0.162909-0.139636-0.256-34.234182-53.457455-52.340364-115.130182-52.340364-178.478545 0-182.853818 148.782545-331.636364 331.636364-331.636364s331.636364 148.782545 331.636364 331.636364c0 58.018909-15.476364 115.269818-44.776727 165.818182-0.325818 0.837818-0.698182 1.629091-1.117091 2.443636L532.596364 1007.406545C528.570182 1015.063273 520.634182 1019.834182 512 1019.834182zM275.223273 495.173818l236.823273 451.374545 242.711273-460.730182c0.512-1.559273 1.210182-3.072 2.048-4.514909 26.368-44.218182 40.285091-94.533818 40.285091-145.501091 0-157.207273-127.883636-285.090909-285.090909-285.090909S226.909091 178.594909 226.909091 335.802182c0 55.179636 15.965091 108.869818 46.173091 155.229091C273.943273 492.357818 274.664727 493.730909 275.223273 495.173818z"  /><path d="M512 453.818182c-59.345455 0-107.636364-48.290909-107.636364-107.636364S452.654545 238.545455 512 238.545455c59.345455 0 107.636364 48.290909 107.636364 107.636364S571.345455 453.818182 512 453.818182zM512 285.090909c-33.675636 0-61.090909 27.415273-61.090909 61.090909S478.324364 407.272727 512 407.272727s61.090909-27.415273 61.090909-61.090909S545.675636 285.090909 512 285.090909z"  /></svg>