<svg class="svg-icon" fill="#B23850" style="width: 1em; height: 1em;vertical-align: middle;overflow: hidden;" viewBox="0 0 1024 1024" version="1.1" xmlns="http://www.w3.org/2000/svg"><path d="M864 0l-768 0c-52.8 0-96 43.2-96 96l0 832c0 52.8 43.2 96 96 96l768 0c52.8 0 96-43.2 96-96l0-832c0-52.8-43.2-96-96-96zM832 896l-704 0 0-768 704 0 0 768zM256 576l448 0 0 64-448 0zM256 704l448 0 0 64-448 0zM320 288c0-53.02 42.98-96 96-96s96 42.98 96 96c0 53.02-42.98 96-96 96s-96-42.98-96-96zM480 384l-128 0c-52.8 0-96 28.8-96 64l0 64 320 0 0-64c0-35.2-43.2-64-96-64z"  /></svg>